<?xml version="1.0" encoding="UTF-8" standalone="no"?>
<svg
   id="svg4248"
   height="48"
   width="48"
   version="1.1"
   sodipodi:docname="preferences-color.svg"
   inkscape:version="1.2.2 (b0a8486541, 2022-12-01)"
   xmlns:inkscape="http://www.inkscape.org/namespaces/inkscape"
   xmlns:sodipodi="http://sodipodi.sourceforge.net/DTD/sodipodi-0.dtd"
   xmlns:xlink="http://www.w3.org/1999/xlink"
   xmlns="http://www.w3.org/2000/svg"
   xmlns:svg="http://www.w3.org/2000/svg"
   xmlns:rdf="http://www.w3.org/1999/02/22-rdf-syntax-ns#"
   xmlns:cc="http://creativecommons.org/ns#"
   xmlns:dc="http://purl.org/dc/elements/1.1/">
  <sodipodi:namedview
     id="namedview220"
     pagecolor="#ffffff"
     bordercolor="#666666"
     borderopacity="1.0"
     inkscape:showpageshadow="2"
     inkscape:pageopacity="0.0"
     inkscape:pagecheckerboard="0"
     inkscape:deskcolor="#d1d1d1"
     showgrid="false"
     inkscape:zoom="6.9532167"
     inkscape:cx="6.8313706"
     inkscape:cy="33.078216"
     inkscape:window-width="1326"
     inkscape:window-height="764"
     inkscape:window-x="431"
     inkscape:window-y="357"
     inkscape:window-maximized="0"
     inkscape:current-layer="svg4248" />
  <defs
     id="defs4250">
    <linearGradient
       inkscape:collect="always"
       id="linearGradient18797">
      <stop
         style="stop-color:#206b00;stop-opacity:1;"
         offset="0"
         id="stop18793" />
      <stop
         style="stop-color:#206b00;stop-opacity:0.5;"
         offset="1"
         id="stop18795" />
    </linearGradient>
    <linearGradient
       inkscape:collect="always"
       id="linearGradient18789">
      <stop
         style="stop-color:#7a0000;stop-opacity:1;"
         offset="0"
         id="stop18785" />
      <stop
         style="stop-color:#7a0000;stop-opacity:0.5;"
         offset="1"
         id="stop18787" />
    </linearGradient>
    <linearGradient
       inkscape:collect="always"
       id="linearGradient18781">
      <stop
         style="stop-color:#002e99;stop-opacity:1;"
         offset="0"
         id="stop18777" />
      <stop
         style="stop-color:#002e99;stop-opacity:0.5;"
         offset="1"
         id="stop18779" />
    </linearGradient>
    <linearGradient
       inkscape:collect="always"
       id="linearGradient14808">
      <stop
         style="stop-color:#d1ff82;stop-opacity:1;"
         offset="0"
         id="stop14804" />
      <stop
         style="stop-color:#68b723;stop-opacity:1;"
         offset="1"
         id="stop14806" />
    </linearGradient>
    <linearGradient
       inkscape:collect="always"
       id="linearGradient13285">
      <stop
         style="stop-color:#8cd5ff;stop-opacity:1;"
         offset="0"
         id="stop13281" />
      <stop
         style="stop-color:#3689e6;stop-opacity:1;"
         offset="1"
         id="stop13283" />
    </linearGradient>
    <linearGradient
       inkscape:collect="always"
       id="linearGradient6761">
      <stop
         style="stop-color:#ff8c82;stop-opacity:1;"
         offset="0"
         id="stop6757" />
      <stop
         style="stop-color:#c6262e;stop-opacity:1;"
         offset="1"
         id="stop6759" />
    </linearGradient>
    <linearGradient
       id="linearGradient4011-4">
      <stop
         id="stop4013-8"
         style="stop-color:#ffffff;stop-opacity:1"
         offset="0" />
      <stop
         id="stop4015-5"
         style="stop-color:#ffffff;stop-opacity:0.23529412"
         offset="0.507761" />
      <stop
         id="stop4017-6"
         style="stop-color:#ffffff;stop-opacity:0.15686275"
         offset="0.83456558" />
      <stop
         id="stop4019-1"
         style="stop-color:#ffffff;stop-opacity:0.39215687"
         offset="1" />
    </linearGradient>
    <linearGradient
       id="linearGradient4661">
      <stop
         id="stop4663"
         style="stop-color:#000000;stop-opacity:1"
         offset="0" />
      <stop
         id="stop4665"
         style="stop-color:#000000;stop-opacity:0"
         offset="1" />
    </linearGradient>
    <radialGradient
       xlink:href="#linearGradient4661"
       id="radialGradient3090"
       gradientUnits="userSpaceOnUse"
       gradientTransform="matrix(1.6000001,0,0,0.39999938,-76.200006,40.595001)"
       cx="62.625"
       cy="4.625"
       fx="62.625"
       fy="4.625"
       r="10.625" />
    <linearGradient
       y2="44.340794"
       x2="71.204407"
       y1="6.2375584"
       x1="71.204407"
       gradientTransform="matrix(0.62162157,0,0,0.62162157,-27.591099,15.237394)"
       gradientUnits="userSpaceOnUse"
       id="linearGradient14881"
       xlink:href="#linearGradient4011-4" />
    <linearGradient
       y2="44.340794"
       x2="71.204407"
       y1="6.2375584"
       x1="71.204407"
       gradientTransform="matrix(0.62162157,0,0,0.62162157,-13.5911,15.237394)"
       gradientUnits="userSpaceOnUse"
       id="linearGradient14885"
       xlink:href="#linearGradient4011-4" />
    <linearGradient
       y2="44.340794"
       x2="71.204407"
       y1="6.2375584"
       x1="71.204407"
       gradientTransform="matrix(0.62162157,0,0,0.62162157,-20.591099,2.2373946)"
       gradientUnits="userSpaceOnUse"
       id="linearGradient14889"
       xlink:href="#linearGradient4011-4" />
    <linearGradient
       inkscape:collect="always"
       xlink:href="#linearGradient6761"
       id="linearGradient6763"
       x1="34.676956"
       y1="11.723297"
       x2="34.676956"
       y2="59.709702"
       gradientUnits="userSpaceOnUse" />
    <linearGradient
       inkscape:collect="always"
       xlink:href="#linearGradient13285"
       id="linearGradient13287"
       x1="12.6016"
       y1="12.405132"
       x2="12.6016"
       y2="55.15794"
       gradientUnits="userSpaceOnUse" />
    <linearGradient
       inkscape:collect="always"
       xlink:href="#linearGradient14808"
       id="linearGradient14810"
       x1="23.930099"
       y1="0.062989004"
       x2="23.930099"
       y2="39.951103"
       gradientUnits="userSpaceOnUse" />
    <linearGradient
       inkscape:collect="always"
       xlink:href="#linearGradient18781"
       id="linearGradient18783"
       x1="13.05024"
       y1="31.615053"
       x2="20.356897"
       y2="18.959551"
       gradientUnits="userSpaceOnUse" />
    <linearGradient
       inkscape:collect="always"
       xlink:href="#linearGradient18789"
       id="linearGradient18791"
       x1="35.176392"
       y1="31.948603"
       x2="28.039177"
       y2="19.277662"
       gradientUnits="userSpaceOnUse" />
    <linearGradient
       inkscape:collect="always"
       xlink:href="#linearGradient18797"
       id="linearGradient18799"
       x1="24.058325"
       y1="12.515717"
       x2="24.058325"
       y2="26.170309"
       gradientUnits="userSpaceOnUse" />
  </defs>
  <metadata
     id="metadata4253">
    <rdf:RDF>
      <cc:Work
         rdf:about="">
        <dc:format>image/svg+xml</dc:format>
        <dc:type
           rdf:resource="http://purl.org/dc/dcmitype/StillImage" />
      </cc:Work>
    </rdf:RDF>
  </metadata>
  <path
     id="rect5240"
     style="opacity:1;fill:#ffffff;fill-opacity:1;stroke:none;stroke-width:1;stroke-linejoin:round;stroke-miterlimit:3.42857;stroke-opacity:0.5;paint-order:stroke markers fill"
     d="m 23.867728,20.680933 c -0.174668,0.005 -0.343272,0.06694 -0.479039,0.176942 -2.437344,1.963555 -4.17622,4.751515 -4.794702,7.947296 -0.07372,0.379563 0.135089,0.757573 0.496301,0.8955 1.494399,0.570368 3.117103,0.897658 4.81844,0.897658 1.701333,0 3.321879,-0.32729 4.816281,-0.897658 0.361217,-0.13792 0.572183,-0.515937 0.498458,-0.8955 -0.278502,-1.428192 -0.784741,-2.842059 -1.555797,-4.177563 -0.872744,-1.51164 -2.011659,-2.757885 -3.282062,-3.774049 -0.146991,-0.117582 -0.329725,-0.177823 -0.51788,-0.172626 z" />
  <path
     id="path14769"
     d="M 24.000001,5.551161 C 17.102933,5.551158 11.5,11.154092 11.5,18.051161 c 0,0.608168 0.05944,1.201446 0.143618,1.786536 1.533522,-0.672289 3.223473,-1.051243 5.003448,-1.051242 2.749966,0 5.290972,0.89183 7.352941,2.401196 2.062536,-1.51079 4.604414,-2.404068 7.355808,-2.404068 1.779974,0 3.469925,0.378953 5.003447,1.051241 -0.02824,0.196284 -0.07191,0.38694 -0.109147,0.580193 C 36.398378,19.646635 36.5,18.862635 36.5,18.051161 c 9e-6,-6.897069 -5.602935,-12.5 -12.5,-12.5 z m 12.043314,15.757124 c -0.0596,0.220465 -0.115529,0.442259 -0.186695,0.657743 0.07148,-0.215765 0.126867,-0.436955 0.186695,-0.657743 z m -0.651998,1.849723 c -0.09078,0.202217 -0.19195,0.398192 -0.29297,0.594555 0.101456,-0.196485 0.201815,-0.392184 0.29297,-0.594555 z m -0.838696,1.551012 c -0.08433,0.133589 -0.166453,0.269128 -0.255629,0.399241 0.08968,-0.130294 0.170836,-0.265445 0.255629,-0.399241 z m -1.08858,1.473461 c -0.09378,0.109279 -0.186927,0.218604 -0.284352,0.324563 0.09779,-0.105941 0.19022,-0.215284 0.284352,-0.324563 z m -1.355698,1.361442 c -0.07816,0.06701 -0.161462,0.127339 -0.241269,0.192442 0.08003,-0.06504 0.162888,-0.125471 0.241269,-0.192442 z m -1.372933,1.016775 c -0.06854,0.04416 -0.134485,0.09215 -0.203929,0.135 0.06972,-0.04288 0.135118,-0.09079 0.203929,-0.135 z m -1.611328,0.876034 c -0.04096,0.01852 -0.08232,0.03649 -0.1235,0.05457 4.33e-4,0.0029 0.0025,0.0056 0.0029,0.0087 0.04181,-0.01832 0.07906,-0.04441 0.120632,-0.06319 z"
     style="color:#000000;clip-rule:nonzero;display:inline;overflow:visible;visibility:visible;opacity:1;isolation:auto;mix-blend-mode:normal;color-interpolation:sRGB;color-interpolation-filters:linearRGB;solid-color:#000000;solid-opacity:1;fill:url(#linearGradient14810);fill-opacity:1;fill-rule:nonzero;stroke:none;stroke-width:1;stroke-linecap:butt;stroke-linejoin:miter;stroke-miterlimit:4;stroke-dasharray:none;stroke-dashoffset:0;stroke-opacity:1;marker:none;color-rendering:auto;image-rendering:auto;shape-rendering:auto;text-rendering:auto;enable-background:accumulate" />
  <path
     d="m 41,42.445 c 0,2.34721 -7.61116,4.25 -17,4.25 -9.388841,0 -17.0000004,-1.90279 -17.0000004,-4.25 0,-2.34721 7.6111594,-4.25 17.0000004,-4.25 9.38884,0 17,1.90279 17,4.25 z"
     id="path8836"
     style="display:inline;overflow:visible;visibility:visible;opacity:0.3;fill:url(#radialGradient3090);fill-opacity:1;fill-rule:evenodd;stroke:none;stroke-width:0.99999988;marker:none" />
  <path
     id="path14761"
     d="m 17.592426,18.499728 c 0.112145,0.0052 0.225093,0.0091 0.336445,0.01726 -0.112101,-0.0084 -0.224036,-0.01178 -0.336445,-0.01726 z m -1.225002,0.0087 c -0.17761,0.0088 -0.354397,0.01222 -0.531984,0.02875 0.17518,-0.01661 0.354739,-0.01955 0.531984,-0.02875 z m 3.17753,0.232922 c 0.02606,0.0054 0.05163,0.01163 0.07763,0.01726 -0.026,-0.0056 -0.0516,-0.01178 -0.07763,-0.01726 z m -5.170316,0.02013 c -0.188548,0.04053 -0.373276,0.09995 -0.56074,0.14953 0.18689,-0.04987 0.370551,-0.108214 0.56074,-0.14953 z m -1.572949,0.460095 c -0.19615,0.07027 -0.389776,0.143549 -0.583746,0.224295 0.192032,-0.08008 0.387123,-0.153528 0.583746,-0.224295 z m -0.79654,0.324941 c -0.420254,0.184244 -0.841411,0.366251 -1.248006,0.600999 -5.980008,3.45255 -8.033375,11.115396 -4.5808191,17.095398 3.4525529,5.980003 11.1153941,8.033374 17.0953981,4.580819 0.527302,-0.304439 1.012897,-0.652091 1.478054,-1.01796 -1.350553,-0.993082 -2.52518,-2.269735 -3.416203,-3.813036 -1.387224,-2.402742 -1.956491,-4.673059 -1.665799,-7.234397 -4.070923,-1.629759 -7.011541,-5.738108 -7.662625,-10.211823 z m 10.77197,0.350822 c 0.104784,0.0548 0.207552,0.111998 0.310565,0.16966 -0.103489,-0.05742 -0.205619,-0.115252 -0.310565,-0.16966 z m 1.503936,0.92019 c 0.0491,0.03529 0.09809,0.07042 0.146656,0.106403 0.0032,-0.0025 0.0054,-0.006 0.0087,-0.0087 -0.04954,-0.03643 -0.105255,-0.06212 -0.155282,-0.09778 z"
     style="color:#000000;clip-rule:nonzero;display:inline;overflow:visible;visibility:visible;opacity:1;isolation:auto;mix-blend-mode:normal;color-interpolation:sRGB;color-interpolation-filters:linearRGB;solid-color:#000000;solid-opacity:1;fill:url(#linearGradient13287);fill-opacity:1;fill-rule:nonzero;stroke:none;stroke-width:1;stroke-linecap:round;stroke-linejoin:round;stroke-miterlimit:4;stroke-dasharray:none;stroke-dashoffset:0;stroke-opacity:1;marker:none;color-rendering:auto;image-rendering:auto;shape-rendering:auto;text-rendering:auto;enable-background:accumulate"
     sodipodi:nodetypes="cccccccccccccccccsscscccccccccc" />
  <path
     id="path14771"
     d="m 16.542357,18.460485 c -1.791729,-10e-7 -3.492839,0.381455 -5.036488,1.058183 0.628132,4.366056 3.301032,8.021526 7.184568,9.777445 0.493709,-3.426166 2.794085,-6.951508 5.288412,-8.507773 -2.076748,-1.522225 -4.66547,-2.327855 -7.436492,-2.327855 z"
     style="color:#000000;display:inline;overflow:visible;visibility:visible;opacity:1;fill:#89ffdd;fill-opacity:1;fill-rule:nonzero;stroke:none;stroke-width:1;marker:none;enable-background:accumulate"
     sodipodi:nodetypes="scccs" />
  <path
     id="path14763"
     d="M 28.90303,29.4214 C 27.302841,30.124729 25.858266,30.515069 24,30.515069 c -1.702629,0 -3.840996,-0.592397 -5.332427,-1.188306 -0.303128,2.665516 0.188856,5.709091 1.632551,8.209642 0.926953,1.605534 2.148946,2.933667 3.55396,3.966795 3.699222,-2.909621 5.693115,-7.564213 5.048946,-12.0818 z"
     style="color:#000000;display:inline;overflow:visible;visibility:visible;opacity:1;fill:#f76eda;fill-opacity:1;fill-rule:nonzero;stroke:none;stroke-width:1;marker:none;enable-background:accumulate"
     sodipodi:nodetypes="cscscc" />
  <path
     style="color:#000000;clip-rule:nonzero;display:inline;overflow:visible;visibility:visible;opacity:1;isolation:auto;mix-blend-mode:normal;color-interpolation:sRGB;color-interpolation-filters:linearRGB;solid-color:#000000;solid-opacity:1;fill:url(#linearGradient6763);fill-opacity:1;fill-rule:nonzero;stroke:none;stroke-width:1;stroke-linecap:butt;stroke-linejoin:miter;stroke-miterlimit:4;stroke-dasharray:none;stroke-dashoffset:0;stroke-opacity:1;marker:none;color-rendering:auto;image-rendering:auto;shape-rendering:auto;text-rendering:auto;enable-background:accumulate"
     d="m 36.011167,19.656441 c -0.642381,4.465119 -3.033072,8.109527 -7.093287,9.736918 0.291025,2.553948 -0.09372,5.183059 -1.477031,7.579023 -0.887858,1.537818 -2.447397,3.154825 -3.793151,4.144379 1.31031,1.240654 4.460768,2.431178 7.371985,2.431176 6.880575,0 12.47012,-5.589534 12.470113,-12.470112 0,-5.104861 -3.080581,-9.493302 -7.478629,-11.421384 z"
     id="path14717"
     sodipodi:nodetypes="ccscssc" />
  <path
     id="path14744"
     d="m 31.63321,18.50118 c -3.930105,-0.08096 -7.563111,2.215815 -7.563111,2.215815 0,0 2.777992,2.507222 3.670727,4.053484 0.820364,1.420911 1.321653,2.935063 1.541396,4.465726 3.886326,-1.711703 6.473854,-4.973706 7.099252,-9.320785 -1.538257,-0.674365 -2.962793,-1.41424 -4.748264,-1.41424 z"
     style="color:#000000;display:inline;overflow:visible;visibility:visible;opacity:1;fill:#ffe16b;fill-opacity:1;fill-rule:nonzero;stroke:none;stroke-width:1;marker:none;enable-background:accumulate"
     sodipodi:nodetypes="ccsccc" />
  <path
     d="m 28.499999,30.999594 c 0,6.351479 -5.149105,11.500407 -11.499854,11.500407 -6.351332,0 -11.5001452,-5.148986 -11.5001452,-11.500407 0,-6.351186 5.1488132,-11.499591 11.5001452,-11.499591 6.350749,0 11.499854,5.148405 11.499854,11.499591 z"
     id="path14879"
     style="color:#000000;display:inline;overflow:visible;visibility:visible;opacity:0.7;fill:none;stroke:url(#linearGradient14881);stroke-width:1;stroke-linecap:round;stroke-linejoin:round;stroke-miterlimit:4;stroke-dasharray:none;stroke-dashoffset:0;stroke-opacity:1;marker:none;enable-background:accumulate" />
  <path
     style="color:#000000;display:inline;overflow:visible;visibility:visible;opacity:0.7;fill:none;stroke:url(#linearGradient14885);stroke-width:1;stroke-linecap:round;stroke-linejoin:round;stroke-miterlimit:4;stroke-dasharray:none;stroke-dashoffset:0;stroke-opacity:1;marker:none;enable-background:accumulate"
     id="path14883"
     d="m 42.499999,30.999594 c 0,6.351479 -5.149105,11.500407 -11.499854,11.500407 -6.351332,0 -11.500146,-5.148986 -11.500146,-11.500407 0,-6.351186 5.148814,-11.499591 11.500146,-11.499591 6.350749,0 11.499854,5.148405 11.499854,11.499591 z" />
  <path
     d="m 35.499999,17.999595 c 0,6.351479 -5.149105,11.500406 -11.499854,11.500406 C 17.648813,29.500001 12.5,24.351015 12.5,17.999595 c 0,-6.351186 5.148813,-11.499592 11.500145,-11.499592 6.350749,0 11.499854,5.148406 11.499854,11.499592 z"
     id="path14887"
     style="color:#000000;display:inline;overflow:visible;visibility:visible;opacity:0.7;fill:none;stroke:url(#linearGradient14889);stroke-width:1;stroke-linecap:round;stroke-linejoin:round;stroke-miterlimit:4;stroke-dasharray:none;stroke-dashoffset:0;stroke-opacity:1;marker:none;enable-background:accumulate" />
  <path
     d="M 24.000002,30.500002 C 17.102933,30.500002 11.5,24.897071 11.5,18 11.5,11.102931 17.102933,5.499997 24.000001,5.5 30.897067,5.5 36.500006,11.102931 36.5,18 c 0,6.897071 -5.602933,12.500002 -12.499998,12.500002 z"
     id="path14767"
     style="color:#000000;display:inline;overflow:visible;visibility:visible;opacity:1;fill:none;fill-opacity:0;fill-rule:nonzero;stroke:url(#linearGradient18799);stroke-width:1;stroke-linecap:round;stroke-linejoin:round;stroke-miterlimit:4;stroke-dasharray:none;stroke-dashoffset:0;stroke-opacity:0.5;marker:none;enable-background:accumulate" />
  <path
     style="color:#000000;display:inline;overflow:visible;visibility:visible;opacity:1;fill:none;fill-opacity:0;fill-rule:nonzero;stroke:url(#linearGradient18783);stroke-width:1;stroke-linecap:round;stroke-linejoin:round;stroke-miterlimit:4;stroke-dasharray:none;stroke-dashoffset:0;stroke-opacity:0.5;marker:none;enable-background:accumulate"
     id="path14759"
     d="m 27.827653,24.748652 c 3.44928,5.974326 1.398023,13.629726 -4.576305,17.079006 C 17.277022,45.276937 9.6216202,43.225679 6.1723437,37.251351 2.7230661,31.277027 4.7743202,23.621623 10.74865,20.172349 c 5.974327,-3.44928 13.629726,-1.398021 17.079003,4.576303 z" />
  <path
     d="M 31.000001,18.500001 C 24.102932,18.500001 18.5,24.102932 18.5,31.000002 c 0,6.897069 5.602932,12.500003 12.500001,12.5 6.897066,0 12.500004,-5.602931 12.499998,-12.5 0,-6.89707 -5.602932,-12.500001 -12.499998,-12.500001 z"
     id="path14719"
     style="color:#000000;display:inline;overflow:visible;visibility:visible;opacity:1;fill:none;fill-opacity:0;fill-rule:nonzero;stroke:url(#linearGradient18791);stroke-width:1;stroke-linecap:round;stroke-linejoin:round;stroke-miterlimit:4;stroke-dasharray:none;stroke-dashoffset:0;stroke-opacity:0.5;marker:none;enable-background:accumulate" />
</svg>
