<?xml version="1.0" encoding="UTF-8"?>
<svg xmlns="http://www.w3.org/2000/svg" version="1.1" viewBox="0 0 16 16">
  <defs>
    <style>
      .cls-1 {
        fill: #ff0;
      }
    </style>
  </defs>
  <!-- Generator: Adobe Illustrator 28.7.1, SVG Export Plug-In . SVG Version: 1.2.0 Build 142)  -->
  <g>
    <g id="Layer_1">
      <path class="cls-1" d="M7.9.1c-.5,0-1,.3-1.4,1L.2,12.7c-.5,1,0,2.3,1.1,2.3h13.2c1,0,1.9-1.2,1.2-2.3L9.4,1.1c-.4-.6-.9-1-1.5-1ZM8,4c.5,0,1,.5,1,1v3.9c0,.5-.5,1-1,1s-1-.5-1-1v-3.9c0-.5.4-.9.8-1,0,0,.1,0,.2,0ZM8,11c.6,0,1,.4,1,1s-.4,1-1,1-1-.4-1-1,.4-1,1-1Z"/>
    </g>
  </g>
</svg>