<?xml version="1.0" encoding="UTF-8"?>
<svg xmlns="http://www.w3.org/2000/svg" version="1.1" viewBox="0 0 16 16">
  <defs>
    <style>
      .cls-1 {
        fill: #eee;
      }
    </style>
  </defs>
  <!-- Generator: Adobe Illustrator 28.7.1, SVG Export Plug-In . SVG Version: 1.2.0 Build 142)  -->
  <g>
    <g id="Layer_1">
      <path class="cls-1" d="M4,4h1c.3,0,.5.1.7.3l2.3,2.3,2.3-2.3c.3-.2.4-.3.7-.3h1v1c0,.3,0,.6-.2.8l-2.3,2.3,2.2,2.2c.2.2.3.5.3.7v1h-1c-.3,0-.5,0-.7-.3l-2.3-2.3-2.3,2.3c-.2.2-.5.3-.7.3h-1v-1c0-.3,0-.5.3-.7l2.3-2.2-2.3-2.3c-.2-.2-.3-.5-.3-.8v-1Z"/>
    </g>
  </g>
</svg>