<?xml version="1.0" encoding="UTF-8"?>
<svg xmlns="http://www.w3.org/2000/svg" version="1.1" viewBox="0 0 200 200">
  <defs>
    <style>
      .cls-1 {
        font-family: MyriadPro-Regular, 'Myriad Pro';
        font-size: 12px;
      }

      .cls-1, .cls-2 {
        fill: #eee;
      }
    </style>
  </defs>
  <!-- Generator: Adobe Illustrator 28.7.1, SVG Export Plug-In . SVG Version: 1.2.0 Build 142)  -->
  <g>
    <g id="Layer_1">
      <path class="cls-2" d="M125.1,107.4h-3.4c-3.1,0-5.9-2-6.9-4.9-.6-1.8-1.4-3.5-2.2-5.2-1.4-2.8-.8-6.2,1.4-8.4l2.4-2.4c4-4,4-10.6,0-14.6l-1.7-1.7c-4-4-10.6-4-14.6,0l-2.4,2.4c-2.2,2.2-5.5,2.8-8.3,1.4-1.7-.8-3.4-1.5-5.2-2.2-2.9-1-4.9-3.8-4.9-6.9v-3.4c0-5.7-4.6-10.3-10.3-10.3h-2.4c-5.7,0-10.3,4.6-10.3,10.3v3.4c0,3.1-2,5.9-4.9,6.9-1.8.6-3.5,1.4-5.2,2.2-2.8,1.4-6.2.8-8.4-1.4l-2.4-2.4c-4-4-10.6-4-14.6,0l-1.7,1.7c-4,4-4,10.6,0,14.6l2.4,2.4c2.2,2.2,2.8,5.5,1.4,8.3-.8,1.7-1.5,3.4-2.2,5.2-1,2.9-3.8,4.9-6.9,4.9h-3.4C4.6,107.7,0,112.3,0,118v2.4c0,5.7,4.6,10.3,10.3,10.3h3.4c3.1,0,5.9,2,6.9,4.9.6,1.8,1.4,3.5,2.2,5.2,1.4,2.8.8,6.2-1.4,8.4l-2.4,2.4c-4,4-4,10.6,0,14.6l1.7,1.7c4,4,10.6,4,14.6,0l2.4-2.4c2.2-2.2,5.5-2.8,8.3-1.4,1.7.8,3.4,1.5,5.2,2.2,2.9,1,4.9,3.8,4.9,6.9v3.4c0,5.7,4.6,10.3,10.3,10.3h2.4c5.7,0,10.3-4.6,10.3-10.3v-3.4c0-3.1,2-5.9,4.9-6.9,1.8-.6,3.5-1.4,5.2-2.2,2.8-1.4,6.2-.8,8.4,1.4l2.4,2.4c4,4,10.6,4,14.6,0l1.7-1.7c4-4,4-10.6,0-14.6l-2.4-2.4c-2.2-2.2-2.8-5.5-1.4-8.3.8-1.7,1.5-3.4,2.2-5.2,1-2.9,3.8-4.9,6.9-4.9h3.4c5.7,0,10.3-4.6,10.3-10.3v-2.4c0-5.7-4.6-10.3-10.3-10.3h0ZM67.7,144.1c-13.9,0-25.1-11.2-25.1-25.1s11.2-25.1,25.1-25.1,25.1,11.2,25.1,25.1c0,13.9-11.2,25.1-25.1,25.1Z"/>
      <path class="cls-2" d="M193.3,49.5h-1.7c-2.6,0-4.8-1.6-5.8-4-.2-.6-.5-1.2-.7-1.8-1.1-2.3-.6-5.1,1.3-6.9l1.2-1.2c2.6-2.6,2.6-6.9,0-9.5l-.5-.5c-2.6-2.6-6.9-2.6-9.5,0l-1.2,1.2c-1.8,1.8-4.5,2.3-6.9,1.3-.6-.3-1.2-.5-1.8-.7-2.4-.9-4-3.2-4-5.7v-1.7c0-3.7-3-6.7-6.7-6.7h-.7c-3.7,0-6.7,3-6.7,6.7v1.7c0,2.6-1.6,4.8-4,5.8-.6.2-1.2.5-1.8.7-2.3,1-5.1.6-6.9-1.3l-1.2-1.2c-2.6-2.6-6.9-2.6-9.5,0l-.5.5c-2.6,2.6-2.6,6.9,0,9.5l1.2,1.2c1.8,1.8,2.3,4.5,1.3,6.9-.3.6-.5,1.2-.7,1.8-.9,2.4-3.2,4-5.7,4h-1.7c-3.7,0-6.7,3-6.7,6.7v.7c0,3.7,3,6.7,6.7,6.7h1.7c2.6,0,4.8,1.6,5.8,4,.2.6.5,1.2.7,1.8,1.1,2.3.6,5.1-1.3,6.9l-1.2,1.2c-2.6,2.6-2.6,6.9,0,9.5l.5.5c2.6,2.6,6.9,2.6,9.5,0l1.2-1.2c1.8-1.8,4.5-2.3,6.9-1.3.6.3,1.2.5,1.8.7,2.4.9,4,3.2,4,5.7v1.7c0,3.7,3,6.7,6.7,6.7h.7c3.7,0,6.7-3,6.7-6.7v-1.7c0-2.6,1.6-4.8,4-5.8.6-.2,1.2-.5,1.8-.7,2.3-1.1,5.1-.6,6.9,1.3l1.2,1.2c2.6,2.6,6.8,2.6,9.5,0l.5-.5c2.6-2.6,2.6-6.9,0-9.5l-1.2-1.2c-1.8-1.8-2.3-4.5-1.3-6.9.3-.6.5-1.2.7-1.8.9-2.4,3.2-4,5.7-4h1.7c3.7,0,6.7-3,6.7-6.7v-.7c0-3.7-3-6.7-6.7-6.7h0ZM156.7,71.2c-8.1,0-14.7-6.6-14.7-14.7s6.6-14.7,14.7-14.7,14.7,6.6,14.7,14.7-6.6,14.7-14.7,14.7Z"/>
      <text class="cls-1" transform="translate(395.1 358)"><tspan x="0" y="0">eeeeee</tspan></text>
    </g>
  </g>
</svg>