<?xml version="1.0" encoding="UTF-8"?>
<svg xmlns="http://www.w3.org/2000/svg" version="1.1" viewBox="0 0 16 16">
  <defs>
    <style>
      .cls-1 {
        fill: #eee;
      }
    </style>
  </defs>
  <!-- Generator: Adobe Illustrator 28.7.1, SVG Export Plug-In . SVG Version: 1.2.0 Build 142)  -->
  <g>
    <g id="Layer_1">
      <path class="cls-1" d="M2,6c-1.1,0-2,.9-2,2s.9,2,2,2,2-.9,2-2-.9-2-2-2ZM8,6c-1.1,0-2,.9-2,2s.9,2,2,2,2-.9,2-2-.9-2-2-2ZM14,6c-1.1,0-2,.9-2,2s.9,2,2,2,2-.9,2-2-.9-2-2-2Z"/>
    </g>
  </g>
</svg>