<?xml version="1.0" encoding="UTF-8"?>
<svg xmlns="http://www.w3.org/2000/svg" version="1.1" viewBox="0 0 16 16">
  <defs>
    <style>
      .cls-1 {
        fill: #eee;
      }
    </style>
  </defs>
  <!-- Generator: Adobe Illustrator 28.7.1, SVG Export Plug-In . SVG Version: 1.2.0 Build 142)  -->
  <g>
    <g id="Layer_1">
      <g>
        <path class="cls-1" d="M7.7,10.2c-.5,0-.8.3-.8.8,0,.4.4.8.8.9.4,0,.8-.3.8-.8,0-.4-.3-.8-.7-.8Z"/>
        <path class="cls-1" d="M13.2,10.2c-.4,0-.8.3-.8.8,0,.5.3.9.8.9.4,0,.8-.4.8-.8,0-.5-.3-.8-.8-.8Z"/>
        <path class="cls-1" d="M15,2H6L0,8l6,6h9c.5,0,1-.5,1-1V3c0-.5-.3-1-1-1ZM8.2,3.5c.1-.2.2,0,.3,0,.3.6.6,1.1,1,1.7.2.3.4.7.6,1,.2.3.2.6,0,.8-.2.2-.3.5-.4.7-.1.2-.2.2-.4,0-.5-.8-.9-1.6-1.4-2.4,0-.2-.1-.3-.1-.5,0-.5.3-.9.5-1.3ZM13.7,12.4c-.8.3-1.7,0-1.9-.9-.2-.5-.5-1-.8-1.5-.1-.2-.2-.3,0-.5,0,0,.1-.2,0-.3-.1,0-.2,0-.2.2-.1.2-.2.3-.5.3-.1,0-.2.1-.3.2-.4.5-.7,1.1-.9,1.7-.2.6-.8,1-1.4,1-.6,0-1.1-.3-1.4-.9,0-.2-.1-.4,0-.6-.1-.9,1-1.9,2.2-1.3.3.2.4,0,.5-.1.6-1.2,1.3-2.3,2-3.5.5-.8,1-1.7,1.5-2.5.1-.2.2-.2.3,0,0,.2.2.4.3.6.2.5.2.9,0,1.3-.5.8-.9,1.6-1.4,2.4-.2.3-.2.4,0,.9,0,.1.1.2.2.4.1.2.2.5.4.7.3.1.5-.1.7-.2.8-.2,1.6.3,1.8,1,.2.8-.2,1.6-.9,1.9Z"/>
      </g>
    </g>
  </g>
</svg>