<?xml version="1.0" encoding="UTF-8"?>
<svg xmlns="http://www.w3.org/2000/svg" version="1.1" viewBox="0 0 16 16">
  <defs>
    <style>
      .cls-1 {
        fill-opacity: .3;
      }

      .cls-1, .cls-2 {
        fill: #eee;
      }
    </style>
  </defs>
  <!-- Generator: Adobe Illustrator 28.7.1, SVG Export Plug-In . SVG Version: 1.2.0 Build 142)  -->
  <g>
    <g id="Layer_1">
      <g>
        <path class="cls-2" d="M6,11h1v1h-1v-1ZM7,12h1v1h-1v-1ZM6,9h1v1h-1v-1ZM7,10h1v1h-1v-1ZM6,7h1v1h-1v-1ZM7,8h1v1h-1v-1ZM6,5h1v1h-1v-1ZM7,6h1v1h-1v-1ZM6,3h1v1h-1v-1ZM7,4h1v1h-1v-1ZM3,3h3v10h-3V3Z"/>
        <path class="cls-1" d="M8,3h1v10h-1V3ZM10,12h1v1h-1v-1ZM10,10h1v1h-1v-1ZM10,8h1v1h-1v-1ZM10,6h1v1h-1v-1ZM10,4h1v1h-1v-1ZM9,11h1v1h-1v-1ZM9,9h1v1h-1v-1ZM9,7h1v1h-1v-1ZM9,5h1v1h-1v-1ZM9,3h1v1h-1v-1Z"/>
        <path class="cls-2" d="M3.5,1c-1.4,0-2.5,1.1-2.5,2.5v9c0,1.4,1.1,2.5,2.5,2.5h9c1.4,0,2.5-1.1,2.5-2.5V3.5c0-1.4-1.1-2.5-2.5-2.5H3.5ZM3.5,2h9c.8,0,1.5.7,1.5,1.5v9c0,.8-.7,1.5-1.5,1.5H3.5c-.8,0-1.5-.7-1.5-1.5V3.5c0-.8.7-1.5,1.5-1.5Z"/>
      </g>
    </g>
  </g>
</svg>