<?xml version="1.0" encoding="UTF-8"?>
<svg xmlns="http://www.w3.org/2000/svg" version="1.1" viewBox="0 0 16 16">
  <defs>
    <style>
      .cls-1 {
        fill: #eee;
      }

      .cls-2 {
        fill: lime;
        fill-opacity: .5;
      }
    </style>
  </defs>
  <!-- Generator: Adobe Illustrator 28.7.1, SVG Export Plug-In . SVG Version: 1.2.0 Build 142)  -->
  <g>
    <g id="Layer_1">
      <g>
        <path class="cls-1" d="M7,3c-.1,0-.2,0-.3,0,0,0-.1,0-.2,0,0,0,0,0,0,0,0,0-.2.1-.2.2,0,.1-.1.2-.2.4,0,0,0,0,0,0,0,0,0,0,0,.1v8.4l-2.6-1.3c-.5-.2-1,0-1.3.4-.3.4-.2,1,.3,1.3l4,3h0s0,0,0,0c0,0,0,0,0,0,0,0,0,0,0,0,0,0,0,0,0,0,0,0,0,0,0,0,0,0,0,0,0,0,0,0,0,0,0,0,0,0,0,0,0,0,0,0,0,0,0,0,0,0,0,0,0,0,0,0,0,0,0,0,0,0,0,0,0,0h5s.5,0,.9-.2c.5-.2,1.1-.9,1.1-1.8v-4c0-.5-.3-.9-.8-1l-4-1c0,0-.2,0-.2,0h-1V4c0-.1,0-.2,0-.3,0,0,0-.2-.1-.3,0,0,0,0,0,0,0,0-.1-.1-.2-.2,0,0,0,0,0,0,0,0,0,0,0,0,0,0,0,0,0,0s0,0,0,0c0,0-.1,0-.2,0Z"/>
        <path class="cls-2" d="M7,0C4.8,0,3,1.8,3,4s.8,2.7,2,3.4v-3.4c0-1.1.9-2,2-2s2,.9,2,2v3c0,0,.2,0,.2,0h.3c.9-.7,1.5-1.8,1.5-3,0-2.2-1.8-4-4-4Z"/>
      </g>
    </g>
  </g>
</svg>