<?xml version="1.0" encoding="UTF-8"?>
<svg xmlns="http://www.w3.org/2000/svg" version="1.1" xmlns:cc="http://creativecommons.org/ns#" xmlns:dc="http://purl.org/dc/elements/1.1/" xmlns:osb="http://www.openswatchbook.org/uri/2009/osb" xmlns:rdf="http://www.w3.org/1999/02/22-rdf-syntax-ns#" xmlns:svg="http://www.w3.org/2000/svg" viewBox="0 0 16 16">
  <defs>
    <style>
      .cls-1 {
        fill: red;
      }

      .cls-2 {
        fill: none;
        stroke: red;
        stroke-miterlimit: 10;
        stroke-width: 2px;
      }
    </style>
  </defs>
  <!-- Generator: Adobe Illustrator 28.7.1, SVG Export Plug-In . SVG Version: 1.2.0 Build 142)  -->
  <g>
    <g id="Layer_1">
      <g id="svg7384">
        <g id="layer10">
          <path id="path2314" class="cls-1" d="M8,2C4.4,2,1.2,4.5.3,8c.9,3.5,4.1,6,7.7,6s6.8-2.5,7.7-6c-.9-3.5-4.1-6-7.7-6ZM8,4c2.2,0,4,1.8,4,4s-1.8,4-4,4-4-1.8-4-4,1.8-4,4-4Z"/>
          <path id="path2318" class="cls-1" d="M10,8c0,1.1-.9,2-2,2s-2-.9-2-2,.9-2,2-2,2,.9,2,2Z"/>
        </g>
      </g>
      <line class="cls-2" x1="15.1" y1=".9" x2=".9" y2="15.1"/>
    </g>
  </g>
</svg>