<?xml version="1.0" encoding="UTF-8"?>
<svg xmlns="http://www.w3.org/2000/svg" version="1.1" viewBox="0 0 16 16">
  <defs>
    <style>
      .cls-1 {
        fill: #ff8d8d;
      }
    </style>
  </defs>
  <!-- Generator: Adobe Illustrator 28.7.1, SVG Export Plug-In . SVG Version: 1.2.0 Build 142)  -->
  <g>
    <g id="Layer_1">
      <g id="Layer_1-2" data-name="Layer_1">
        <g id="Layer_1-2">
          <g>
            <path class="cls-1" d="M4.2,2.7h2.3c.5,0,.8.3.8.8v9.2c0,.5-.3.8-.8.8h-2.3c-.5,0-.8-.3-.8-.8V3.4c0-.5.3-.8.8-.8Z"/>
            <path class="cls-1" d="M9.5,2.7h2.3c.5,0,.8.3.8.8v9.2c0,.5-.3.8-.8.8h-2.3c-.5,0-.8-.3-.8-.8V3.4c0-.5.3-.8.8-.8Z"/>
          </g>
        </g>
      </g>
    </g>
  </g>
</svg>