<?xml version="1.0" encoding="UTF-8"?>
<svg xmlns="http://www.w3.org/2000/svg" version="1.1" viewBox="0 0 16 16">
  <defs>
    <style>
      .cls-1 {
        fill: red;
      }
    </style>
  </defs>
  <!-- Generator: Adobe Illustrator 28.7.1, SVG Export Plug-In . SVG Version: 1.2.0 Build 142)  -->
  <g>
    <g id="Layer_1">
      <g id="Layer_1-2" data-name="Layer_1">
        <g>
          <path class="cls-1" d="M7,1c-.3,0-.6.1-.8.4l-3.2,3.6h-1c-1.1,0-2,.8-2,2v2c0,1.1.9,2,2,2h1l3.2,3.6c.2.3.5.4.8.4V1Z"/>
          <path class="cls-1" d="M10,5c-.3,0-.5,0-.7.3-.4.4-.4,1,0,1.4l1.3,1.3-1.3,1.3c-.4.4-.4,1,0,1.4s1,.4,1.4,0l1.3-1.3,1.3,1.3c.4.4,1,.4,1.4,0s.4-1,0-1.4l-1.3-1.3,1.3-1.3c.4-.4.4-1,0-1.4s-.4-.3-.7-.3-.5,0-.7.3l-1.3,1.3-1.3-1.3c-.2-.2-.4-.3-.7-.3Z"/>
        </g>
      </g>
    </g>
  </g>
</svg>