<?xml version="1.0" encoding="UTF-8"?>
<svg xmlns="http://www.w3.org/2000/svg" version="1.1" viewBox="0 0 16 16">
  <defs>
    <style>
      .cls-1, .cls-2 {
        fill: red;
      }

      .cls-2 {
        fill-opacity: .2;
      }
    </style>
  </defs>
  <!-- Generator: Adobe Illustrator 28.7.1, SVG Export Plug-In . SVG Version: 1.2.0 Build 142)  -->
  <g>
    <g id="Layer_1">
      <g>
        <path class="cls-2" d="M13,1c-.6,0-1,.4-1,1v7.3c.1,0,.3.2.4.3l.4.4h.3l.4-.4c.4-.4.9-.6,1.4-.6V2c0-.6-.4-1-1-1h-1ZM9,4c-.6,0-1,.4-1,1v9c0,.6.4,1,1,1h0c0-.5.2-1,.6-1.4l.4-.4v-.3l-.4-.4c-.8-.8-.8-2.1,0-2.8s.9-.6,1.4-.6v-4c0-.6-.4-1-1-1h-1ZM5,7c-.6,0-1,.4-1,1v6c0,.6.4,1,1,1h1c.6,0,1-.4,1-1v-6c0-.6-.4-1-1-1h-1ZM1,10c-.6,0-1,.4-1,1v3c0,.6.4,1,1,1h1c.6,0,1-.4,1-1v-3c0-.6-.4-1-1-1h-1Z"/>
        <path class="cls-1" d="M11,10c-.3,0-.5.1-.7.3-.4.4-.4,1,0,1.4l1.3,1.3-1.3,1.3c-.4.4-.4,1,0,1.4s1,.4,1.4,0l1.3-1.3,1.3,1.3c.4.4,1,.4,1.4,0s.4-1,0-1.4l-1.3-1.3,1.3-1.3c.4-.4.4-1,0-1.4s-.4-.3-.7-.3-.5.1-.7.3l-1.3,1.3-1.3-1.3c-.2-.2-.4-.3-.7-.3Z"/>
      </g>
    </g>
  </g>
</svg>