<?xml version="1.0" encoding="UTF-8"?>
<svg xmlns="http://www.w3.org/2000/svg" version="1.1" viewBox="0 0 16 16">
  <defs>
    <style>
      .cls-1 {
        fill: red;
        fill-opacity: .3;
      }
    </style>
  </defs>
  <!-- Generator: Adobe Illustrator 28.7.1, SVG Export Plug-In . SVG Version: 1.2.0 Build 142)  -->
  <g>
    <g id="Layer_1">
      <path class="cls-1" d="M4,1c-1.6,0-3,1.4-3,3v1h1v-1c0-1.1.9-2,2-2h1v-1h-1ZM6,1v1h4v-1h-4ZM11,1v1h1c1.1,0,2,.9,2,2v1h1v-1c0-1.6-1.4-3-3-3h-1ZM8,3c0,0-.1,0-.2,0-1.6,0-2.9,1.4-2.8,3h2c0-.6.4-1,.9-1,.6,0,1,.4,1.1.9h0c0,.2,0,.4-.1.5-.2.3-.5.5-.7.7-.2.2-.5.4-.7.7-.2.3-.5.7-.5,1.2,0,.5.5,1,1,1s1-.5,1-1c0,0,0,0,0,0,0,0,.2-.2.4-.3,1.2-.9,1.6-1.4,1.6-2.8,0-1.6-1.5-2.8-3-2.8ZM1,6v4h1v-4h-1ZM14,6v4h1v-4h-1ZM1,11v1c0,1.6,1.4,3,3,3h1v-1h-1c-1.1,0-2-.9-2-2v-1h-1ZM14,11v1c0,1.1-.9,2-2,2h-1v1h1c1.6,0,3-1.4,3-3v-1h-1ZM8,11c-.6,0-1,.4-1,1s.4,1,1,1,1-.4,1-1-.4-1-1-1ZM6,14v1h4v-1h-4Z"/>
    </g>
  </g>
</svg>