<?xml version="1.0" encoding="UTF-8"?>
<svg xmlns="http://www.w3.org/2000/svg" version="1.1" viewBox="0 0 16 16">
  <defs>
    <style>
      .cls-1 {
        fill: #eee;
      }
    </style>
  </defs>
  <!-- Generator: Adobe Illustrator 28.7.1, SVG Export Plug-In . SVG Version: 1.2.0 Build 142)  -->
  <g>
    <g id="Layer_1">
      <path class="cls-1" d="M7.4,1c-.6,0-1.2,0-1.8.3C2.3,2.1,0,5.1,0,8.5s2.3,6.4,5.6,7.2c3.3.9,6.7-.6,8.4-3.5.3-.5.1-1.1-.4-1.4-.5-.3-1.1-.1-1.4.4-1.2,2.2-3.8,3.2-6.2,2.6-2.4-.6-4.1-2.8-4.1-5.3S3.7,3.8,6.1,3.2c2.4-.6,4.9.4,6.2,2.6,0,0,.1.2.2.2h0s0,0,0,0h-1.4c-.6,0-1,.4-1,1,0,0,0,1,1,1h5V3s0-1-1-1-1,.4-1,1v1.7h0s0,0,0,0c-1.3-2.2-3.5-3.5-6-3.7-.2,0-.4,0-.6,0Z"/>
    </g>
  </g>
</svg>