<?xml version="1.0" encoding="UTF-8"?>
<svg xmlns="http://www.w3.org/2000/svg" version="1.1" viewBox="0 0 16 16">
  <defs>
    <style>
      .cls-1 {
        fill: #eee;
      }
    </style>
  </defs>
  <!-- Generator: Adobe Illustrator 28.7.1, SVG Export Plug-In . SVG Version: 1.2.0 Build 142)  -->
  <g>
    <g id="Layer_1">
      <path class="cls-1" d="M8,0c-.6,0-1,.4-1,1v8.6l-1.3-1.3c-.2-.2-.4-.3-.7-.3s-.5.1-.7.3c-.4.4-.4,1,0,1.4l3,3c.4.4,1,.4,1.4,0l3-3c.4-.4.4-1,0-1.4s-1-.4-1.4,0l-1.3,1.3V1C9,.4,8.6,0,8,0ZM1,14v2h14v-2H1Z"/>
    </g>
  </g>
</svg>