<?xml version="1.0" encoding="UTF-8"?>
<svg xmlns="http://www.w3.org/2000/svg" version="1.1" viewBox="0 0 16 16">
  <defs>
    <style>
      .cls-1 {
        fill: red;
      }
    </style>
  </defs>
  <!-- Generator: Adobe Illustrator 28.7.1, SVG Export Plug-In . SVG Version: 1.2.0 Build 142)  -->
  <g>
    <g id="Layer_1">
      <g id="Layer_1-2" data-name="Layer_1">
        <path class="cls-1" d="M6,0l-1,1h-3s-1,0-1,1v1h15v-1c0-1-1-1-1-1h-3l-1-1h-5ZM2,4v9c0,3,3,3,3,3h7c3,0,3-3,3-3V4h-2v9c0,1-1,1-1,1h-7s-1,0-1-1V4h-2ZM6,5v7h1v-7h-1ZM8,5v7h1v-7h-1ZM10,5v7h1v-7h-1Z"/>
      </g>
    </g>
  </g>
</svg>