<?xml version="1.0" encoding="UTF-8"?>
<svg xmlns="http://www.w3.org/2000/svg" version="1.1" xmlns:serif="http://www.serif.com/" viewBox="0 0 1920 1080">
  <defs>
    <style>
      .cls-1 {
        fill: red;
      }

      .cls-2 {
        fill: #eee;
      }
    </style>
  </defs>
  <!-- Generator: Adobe Illustrator 28.7.1, SVG Export Plug-In . SVG Version: 1.2.0 Build 142)  -->
  <g>
    <g id="Layer_1">
      <path class="cls-2" d="M892.5,68c-20-.3-39,8.4-52,23.7l-218,245.8h-67.5c-73.8,0-135,57-135,135v135c0,73.6,61.4,135,135,135h67.5l218,245.8c14.2,17.1,33.3,24.5,52,24.2V68Z"/>
      <g id="Layer1">
        <path class="cls-1" d="M1294.4,657.6h-125.9l-26.5-504.7h178.8l-26.5,504.7ZM1140,834.4c0-28.6,7.4-50.8,23.3-65.6,15.9-14.8,38.1-22.2,67.7-22.2s50.8,7.4,66.7,23.3c15.9,14.8,23.3,36,23.3,64.5s-7.4,48.7-23.3,64.5c-15.9,15.9-38.1,23.3-66.7,23.3s-50.8-7.4-66.7-23.3c-15.9-14.8-24.3-36-24.3-64.5Z"/>
      </g>
    </g>
  </g>
</svg>