<?xml version="1.0" encoding="UTF-8"?>
<svg xmlns="http://www.w3.org/2000/svg" version="1.1" viewBox="0 0 16 16">
  <defs>
    <style>
      .cls-1 {
        fill: #eee;
      }
    </style>
  </defs>
  <!-- Generator: Adobe Illustrator 28.7.1, SVG Export Plug-In . SVG Version: 1.2.0 Build 142)  -->
  <g>
    <g id="Layer_1">
      <g>
        <path class="cls-1" d="M15,3v10c0,1-1.1,1-1.1,1h-.1c-.2,0-.4,0-.6-.1l-8.4-4.8c-.4-.2-.6-.6-.6-1.1s.2-.8.6-1.1L13.2,2.1c.2-.1.4-.1.6-.1h.1s1.1,0,1.1,1Z"/>
        <path class="cls-1" d="M1.5,2h1c.3,0,.5.2.5.5v11c0,.3-.2.5-.5.5h-1c-.3,0-.5-.2-.5-.5V2.5c0-.3.2-.5.5-.5Z"/>
      </g>
    </g>
  </g>
</svg>