<?xml version="1.0" encoding="UTF-8"?>
<svg xmlns="http://www.w3.org/2000/svg" version="1.1" viewBox="0 0 16 16">
  <defs>
    <style>
      .cls-1 {
        fill: #eee;
      }
    </style>
  </defs>
  <!-- Generator: Adobe Illustrator 28.7.1, SVG Export Plug-In . SVG Version: 1.2.0 Build 142)  -->
  <g>
    <g id="Layer_1">
      <path class="cls-1" d="M6.7,2c-.2,0-.4,0-.6,0-1.5.2-3,1-4,2.3C.2,7,.8,10.8,3.4,12.8s6.4,1.4,8.4-1.2c.1-.2.2-.4.2-.6v-1h-1c-.3,0-.6.2-.8.4-1.3,1.8-3.8,2.1-5.6.8s-2.1-3.8-.8-5.6c1.3-1.8,3.8-2.1,5.6-.8.4.3.8.7,1,1.2h-1.4c-.6,0-1,.4-1,1v1h6V2h-1c-.6,0-1,.4-1,1v1.7c-.4-.6-.8-1.1-1.4-1.5-1.2-.9-2.5-1.3-3.9-1.2Z"/>
    </g>
  </g>
</svg>