<?xml version="1.0" encoding="UTF-8"?>
<svg xmlns="http://www.w3.org/2000/svg" version="1.1" viewBox="0 0 16 16">
  <defs>
    <style>
      .cls-1 {
        fill: #6300ff;
      }
    </style>
  </defs>
  <!-- Generator: Adobe Illustrator 28.7.1, SVG Export Plug-In . SVG Version: 1.2.0 Build 142)  -->
  <g>
    <g id="Layer_1">
      <g id="Layer_1-2" data-name="Layer_1">
        <g id="Layer_1-2">
          <path class="cls-1" d="M3.5,4c-1.9,0-3.5,1.6-3.5,3.5s1.6,3.5,3.5,3.5,2.6-.8,3.2-2h2.7c.6,1.2,1.8,2,3.2,2s3.5-1.6,3.5-3.5-1.6-3.5-3.5-3.5H3.5ZM11,5c.6,0,1,.4,1,1s-.4,1-1,1-1-.4-1-1,.4-1,1-1ZM3.1,6h.7v.9h.9v.7h-.9v.9h0c0,.1-.7.1-.7.1h0v-1h-1v-.7h1v-.9h0ZM13,7c.6,0,1,.4,1,1s-.4,1-1,1-1-.4-1-1,.4-1,1-1Z"/>
        </g>
      </g>
    </g>
  </g>
</svg>