<?xml version="1.0" encoding="UTF-8"?>
<svg xmlns="http://www.w3.org/2000/svg" version="1.1" viewBox="0 0 16 16">
  <defs>
    <style>
      .cls-1 {
        fill: #6300ff;
      }
    </style>
  </defs>
  <!-- Generator: Adobe Illustrator 28.7.1, SVG Export Plug-In . SVG Version: 1.2.0 Build 142)  -->
  <g>
    <g id="Layer_1">
      <g id="Layer_1-2" data-name="Layer_1">
        <g id="Layer_1-2">
          <path class="cls-1" d="M7.9,0C3.5,0,0,3.6,0,8s3.6,8,8,8,8-3.6,8-8S12.4,0,8,0h0ZM5.9,2.5c.2,0,.4.2.5.4,0,.2-.2.4-.4.4s-.4.2-.4.4v1.2c0,.4-.4.8-.8.8s-.8.4-.8.8-.4.8-.8.8-.8.4-.8.8.4.8.8.8.8.4.8.8v2.9c-1.3-1.1-2-2.8-2-4.5s.6-2.9,1.6-4h0c.2-.3.5-.5.8-.7h0c.4-.4.9-.6,1.5-.8h0ZM10.5,2.9h.6c.5.3.9.6,1.3,1h-1.9c-.3,0-.5-.2-.5-.5s.2-.5.5-.5ZM8.4,3.8c.3,0,.6.3.6.6v.6c0,.3-.3.6-.6.6s-.6-.3-.6-.6v-.6c0-.3.3-.6.6-.6ZM10.7,4.4h2.1c.8,1,1.2,2.2,1.2,3.5-.1,0-.3.2-.4.2h-1.1c-.7,0-1.2.5-1.2,1.2v1.3c0,.4-.4.8-.8.8s-.8-.4-.8-.8v-.9c0-.3,0-.6-.4-.7-.4,0-.7-.3-.7-.7v-1.2c0-.5.3-.9.8-.9s.7-.3.7-.7v-.3c0-.4.3-.7.7-.7h0Z"/>
        </g>
      </g>
    </g>
  </g>
</svg>