<?xml version="1.0" encoding="UTF-8"?>
<svg xmlns="http://www.w3.org/2000/svg" version="1.1" viewBox="0 0 16 16">
  <defs>
    <style>
      .cls-1 {
        fill: #6300ff;
      }
    </style>
  </defs>
  <!-- Generator: Adobe Illustrator 28.7.1, SVG Export Plug-In . SVG Version: 1.2.0 Build 142)  -->
  <g>
    <g id="Layer_1">
      <g id="Layer_1-2" data-name="Layer_1">
        <g id="Layer_1-2">
          <g id="Layer_1-2-2" data-name="Layer_1-2">
            <g>
              <path class="cls-1" d="M3,1C1.4,1,0,2.4,0,4v8c0,1.6,1.4,3,3,3h8.9c.8,0,1.6-.4,2.1-.9s.7-1.2.9-1.8l1-2.6c.4-1.4,0-2.7-.8-3.2s-.7-.3-1-.3v-1.2c0-.9-.6-1.6-1.1-1.8s-1-.2-1-.2h.1-3.6l-1.7-1.7c-.2-.2-.4-.3-.7-.3,0,0-3.1,0-3.1,0ZM3,3h2.6l1.7,1.7c.2.2.4.3.7.3h4.1s0-.2,0,0v2c0,.6.4,1,1,1,1,0,1,.7.9,1.1l-1,2.6c-.1.4-.3.8-.5,1s-.3.3-.6.3H3c-.6,0-1-.4-1-1V4c0-.6.5-.8,1-1Z"/>
              <path class="cls-1" d="M7,6h0c-.9,0-1.8.4-2.2,1-.7,1.2-1.2,2.3-1.8,3.7-.2.5,0,1.1.6,1.3.5.2,1.1-.1,1.3-.6.5-1,.9-1.8,1.3-2.8.2-.5.7-.5.9-.5h5.8c.6,0,1-.4,1-1s-.4-1-1-1h-6,0Z"/>
            </g>
          </g>
        </g>
      </g>
    </g>
  </g>
</svg>