<?xml version="1.0" encoding="UTF-8"?>
<svg xmlns="http://www.w3.org/2000/svg" version="1.1" viewBox="0 0 16 16">
  <defs>
    <style>
      .cls-1 {
        fill: #6300ff;
      }
    </style>
  </defs>
  <!-- Generator: Adobe Illustrator 28.7.1, SVG Export Plug-In . SVG Version: 1.2.0 Build 142)  -->
  <g>
    <g id="Layer_1">
      <g id="Layer_1-2" data-name="Layer_1">
        <g id="Layer_1-2">
          <g>
            <path class="cls-1" d="M6,5c-.6,0-1,.4-1,1s.4,1,1,1,1-.4,1-1-.4-1-1-1ZM9.5,8l-2,2-1.5-1-2,2v.5c0,.5.5.5.5.5h7s.5,0,.5-.5v-1l-2.5-2.5Z"/>
            <path class="cls-1" d="M4,1c-1.6,0-3,1.4-3,3v8c0,1.6,1.4,3,3,3h8c1.6,0,3-1.4,3-3V4c0-1.6-1.4-3-3-3H4ZM4,3h8c.6,0,1,.4,1,1v8c0,.6-.4,1-1,1H4c-.6,0-1-.4-1-1V4c0-.6.4-1,1-1Z"/>
          </g>
        </g>
      </g>
    </g>
  </g>
</svg>