<?xml version="1.0" encoding="UTF-8"?>
<svg xmlns="http://www.w3.org/2000/svg" version="1.1" viewBox="0 0 16 16">
  <defs>
    <style>
      .cls-1 {
        fill: #6300ff;
      }
    </style>
  </defs>
  <!-- Generator: Adobe Illustrator 28.7.1, SVG Export Plug-In . SVG Version: 1.2.0 Build 142)  -->
  <g>
    <g id="Layer_1">
      <g id="Layer_1-2" data-name="Layer_1">
        <g id="Layer_1-2">
          <path class="cls-1" d="M3.5,5c-.3,0-.5.2-.5.5v3c0,2,1.3,3.6,3,4.2v1.3h-2c-.6,0-1,.5-1,1v1h9v-1c0-.6-.5-1-1-1h-2v-1.3c1.7-.6,3-2.3,3-4.2v-3c0-.3-.2-.5-.5-.5s-.5.2-.5.5,0,0,0,.2v2.8c0,2-1.6,3.5-3.5,3.5s-3.5-1.6-3.5-3.5v-3c0-.3-.2-.5-.5-.5ZM7.5,1c1.4,0,2.5,1.1,2.5,2.5v5c0,1.4-1.1,2.5-2.5,2.5s-2.5-1.1-2.5-2.5V3.5c0-1.4,1.1-2.5,2.5-2.5Z"/>
        </g>
      </g>
    </g>
  </g>
</svg>