<?xml version="1.0" encoding="UTF-8"?>
<svg xmlns="http://www.w3.org/2000/svg" version="1.1" viewBox="0 0 16 16">
  <defs>
    <style>
      .cls-1 {
        fill: #6300ff;
      }
    </style>
  </defs>
  <!-- Generator: Adobe Illustrator 28.7.1, SVG Export Plug-In . SVG Version: 1.2.0 Build 142)  -->
  <g>
    <g id="Layer_1">
      <g id="Layer_1-2" data-name="Layer_1">
        <g id="Layer_1-2">
          <path class="cls-1" d="M2.5,2s-.5.2-.5.5v1c0,.3.5.5.5.5h1s.5-.2.5-.5v-1c0-.3-.5-.5-.5-.5h-1ZM6.5,2c-.3,0-.5.2-.5.5v1c0,.3.2.5.5.5h8c.3,0,.5-.2.5-.5v-1c0-.3-.2-.5-.5-.5H6.5ZM2.5,7s-.5.2-.5.5v1c0,.3.5.5.5.5h1s.5-.2.5-.5v-1c0-.3-.5-.5-.5-.5h-1ZM6.5,7s-.5.2-.5.5v1c0,.3.2.5.5.5h8c.3,0,.5-.2.5-.5v-1c0-.3-.5-.5-.5-.5H6.5ZM2.5,12c-.3,0-.5.2-.5.5v1c0,.3.5.5.5.5h1s.5-.2.5-.5v-1c0-.3-.2-.5-.5-.5h-1ZM6.5,12c-.3,0-.5.2-.5.5v1c0,.3.2.5.5.5h8c.3,0,.5-.2.5-.5v-1c0-.3-.2-.5-.5-.5H6.5Z"/>
        </g>
      </g>
    </g>
  </g>
</svg>