<?xml version="1.0" encoding="UTF-8"?>
<svg xmlns="http://www.w3.org/2000/svg" version="1.1" viewBox="0 0 16 16">
  <defs>
    <style>
      .cls-1 {
        fill: #6300ff;
      }
    </style>
  </defs>
  <!-- Generator: Adobe Illustrator 28.7.1, SVG Export Plug-In . SVG Version: 1.2.0 Build 142)  -->
  <g>
    <g id="Layer_1">
      <g id="Layer_1-2" data-name="Layer_1">
        <g id="Layer_1-2">
          <path class="cls-1" d="M1.1,2c-.6,0-1.1.4-1.1,1s.4.9.9,1v8h6v1.7l-1.8,1.4c-.2.2-.3.5,0,.7.2.2.5.3.7,0l1.7-1.3,1.7,1.3c.2.2.5.1.7,0,.2-.2.1-.5,0-.7l-1.8-1.4v-1.7h6V3.9c.4,0,.7-.5.7-1s-.4-1-1-1H1.1ZM8,4c1.1,0,2,.9,2,2h-2v-2ZM7,5v2h2c0,1.1-.9,2-2,2s-2-.9-2-2,.9-2,2-2Z"/>
        </g>
      </g>
    </g>
  </g>
</svg>