<?xml version="1.0" encoding="UTF-8"?>
<svg xmlns="http://www.w3.org/2000/svg" version="1.1" viewBox="0 0 16 16">
  <defs>
    <style>
      .cls-1 {
        fill: #6300ff;
      }
    </style>
  </defs>
  <!-- Generator: Adobe Illustrator 28.7.1, SVG Export Plug-In . SVG Version: 1.2.0 Build 142)  -->
  <g>
    <g id="Layer_1">
      <path class="cls-1" d="M5.3,4.5h-1.9,0v2.1h1.9s0,.1,0,0v.8h-1c-1.7,0-3,1.1-3.1,2.5,0,.7.3,1.4.9,1.8.6.5,1.3.7,2.2.7h3v-5.9c0-1.2-.9-2.1-2.1-2.1ZM4.7,11c-.7,0-1.3-.4-1.3-.9s.6-.9,1.3-.9,1.3.4,1.3.9-.6.9-1.3.9Z"/>
      <path class="cls-1" d="M13.8,7.5c-.5-.6-1.3-1-2.3-1h-1v-3h-2v9.1h3c.9,0,1.8-.4,2.3-1,.5-.6.8-1.3.8-2.1s-.3-1.5-.8-2ZM11.4,11.4c-.7,0-1.3-.6-1.3-1.3s.6-1.3,1.3-1.3,1.3.6,1.3,1.3-.6,1.3-1.3,1.3Z"/>
    </g>
  </g>
</svg>