<?xml version="1.0" encoding="UTF-8"?>
<svg xmlns="http://www.w3.org/2000/svg" version="1.1" viewBox="0 0 16 16">
  <defs>
    <style>
      .cls-1 {
        fill: #6300ff;
      }
    </style>
  </defs>
  <!-- Generator: Adobe Illustrator 28.7.1, SVG Export Plug-In . SVG Version: 1.2.0 Build 142)  -->
  <g>
    <g id="Layer_1">
      <g id="Layer_1-2" data-name="Layer_1">
        <g id="Layer_1-2">
          <g>
            <path class="cls-1" d="M11,4.6h-.3c-.2.2-.2.5,0,.7.9,1.1,1.4,2.2,1.4,3.3s-.4,2.3-1.4,3.5c-.2.2-.1.5,0,.7.2.2.5.1.7,0,1.1-1.3,1.6-2.7,1.6-4.1s-.6-2.8-1.6-4c-.1,0-.3-.2-.4-.2h0ZM9.5,5.8h-.3c-.2.2-.3.5,0,.7.6.8.9,1.5.9,2.2s-.3,1.4-.9,2.2c-.2.2-.1.5,0,.7.2.2.5.1.7,0,.7-.9,1.1-1.9,1.1-2.8s-.4-1.9-1.1-2.8c0,0-.2-.2-.4-.2h0Z"/>
            <path class="cls-1" d="M2,0C.8,0,0,.8,0,2v2h14v10H0c0,1,1,2,2,2h12c1,0,2-1,2-2V2c0-1.2-.8-2-2-2H2Z"/>
            <path class="cls-1" d="M8,6v6c0,.2,0,.4-.3.5h-.6l-1.8-1.2c-.3-.2-.6-.3-.9-.3h-.5c-.6,0-1-.5-1-1v-2c0-.6.4-1,1-1h.6c.3,0,.6,0,.8-.2l1.8-1.2h.6c.2,0,.3.3.3.5h0Z"/>
            <path class="cls-1" d="M1,3c.5,0,1,.4,1,1v10c0,.5-.4,1-1,1s-1-.4-1-1V3.9c0-.5.4-1,1-1h0Z"/>
          </g>
        </g>
      </g>
    </g>
  </g>
</svg>