<?xml version="1.0" encoding="UTF-8"?>
<svg xmlns="http://www.w3.org/2000/svg" version="1.1" viewBox="0 0 16 16">
  <defs>
    <style>
      .cls-1 {
        fill: #6300ff;
      }

      .cls-2 {
        fill: #fff;
      }
    </style>
  </defs>
  <!-- Generator: Adobe Illustrator 28.7.1, SVG Export Plug-In . SVG Version: 1.2.0 Build 142)  -->
  <g>
    <g id="Layer_1">
      <g>
        <path class="cls-2" d="M1.4,12.7c-.2-1.5,1.6-3,3.4-2,.4.2.6.1.8-.2,1-1.8,2.1-3.6,3.1-5.4.7-1.3,1.5-2.6,2.3-3.9.2-.3.3-.3.5,0,.1.3.3.6.4.9.4.7.3,1.4,0,2.1-.7,1.2-1.4,2.5-2.1,3.7-.3.4-.4.7-.1,1.3s.2.4.3.5c.2.4.3.8.7,1,.4.2.7-.2,1.1-.3,1.2-.3,2.5.4,2.8,1.5.4,1.2-.3,2.6-1.4,2.9-1.3.4-2.6-.1-3-1.4-.3-.9-.7-1.6-1.2-2.4-.2-.3-.3-.5,0-.8.1-.2.2-.4,0-.5-.2-.1-.3.1-.4.2-.2.3-.4.5-.7.4-.2,0-.3.2-.4.3-.6.9-1.1,1.7-1.4,2.7-.3,1-1.2,1.6-2.2,1.6-1,0-1.8-.5-2.2-1.4-.1-.3-.2-.6-.1-.9ZM4.9,12.7c0-.7-.5-1.2-1.2-1.2-.7,0-1.3.5-1.3,1.2,0,.7.6,1.3,1.2,1.3.7,0,1.2-.5,1.2-1.3ZM12.2,11.5c-.6,0-1.2.5-1.2,1.2,0,.8.5,1.3,1.2,1.3.7,0,1.2-.6,1.3-1.3,0-.7-.5-1.3-1.3-1.3Z"/>
        <path class="cls-1" d="M3.8,3.1c0-.8.4-1.4.8-2,.2-.3.3,0,.4.1.5.9,1,1.7,1.5,2.6.3.5.6,1.1.9,1.6.3.5.2.9,0,1.2-.2.4-.4.7-.7,1.1-.2.3-.3.4-.6,0-.7-1.3-1.5-2.5-2.2-3.8-.1-.3-.2-.5-.2-.8Z"/>
      </g>
    </g>
  </g>
</svg>