<?xml version="1.0" encoding="UTF-8"?>
<svg xmlns="http://www.w3.org/2000/svg" version="1.1" viewBox="0 0 16 16">
  <defs>
    <style>
      .cls-1 {
        fill: #6300ff;
      }
    </style>
  </defs>
  <!-- Generator: Adobe Illustrator 28.7.1, SVG Export Plug-In . SVG Version: 1.2.0 Build 142)  -->
  <g>
    <g id="Layer_1">
      <g id="Layer_1-2" data-name="Layer_1">
        <g id="Layer_1-2">
          <g id="Layer_1-2-2" data-name="Layer_1-2">
            <g id="Layer_1-2-2">
              <path class="cls-1" d="M13.9,0l-1.5,1.4c-.5.4-.5,1.1-.3,1.7l-5.9,6h0c-.3-.1-.6-.2-.8-.1-.3,0-.6.2-.9.4L.5,13.4c-.4.4-.5.9-.4,1.5,0,.5.6.9,1.1,1.1.5.1,1.1,0,1.5-.4l3.9-4c.5-.5.6-1.2.3-1.7l5.9-6c.6.2,1.3,0,1.7-.3l1.4-1.6-2-2ZM3.5,0c-.4,0-.8,0-1.1.2l1.9,1.9c.4.4.4,1,0,1.4l-.7.7c-.4.4-1,.4-1.4,0L.3,2.4c0,.4-.2.7-.2,1.1,0,1.9,1.6,3.5,3.5,3.5s.8,0,1.1-.2l1.2,1.2h0l2.1-2.1-1.2-1.2c0-.4.2-.7.2-1.1,0-2-1.5-3.6-3.5-3.6ZM10.1,8l-2.1,2.1h0l1.1,1.1c-.1.4-.2.7-.2,1.1,0,1.9,1.6,3.4,3.5,3.4s.9-.1,1.2-.2l-2-2c-.4-.4-.4-1,0-1.4l.7-.7c.2-.2.5-.3.7-.3s.5.1.7.3l1.9,1.9c.1-.3.2-.7.2-1,0-1.9-1.5-3.5-3.5-3.5s-.8,0-1.1.2l-1.2-1.2v.2s.1,0,.1,0Z"/>
            </g>
          </g>
        </g>
      </g>
    </g>
  </g>
</svg>