<?xml version="1.0" encoding="UTF-8"?>
<svg xmlns="http://www.w3.org/2000/svg" version="1.1" viewBox="0 0 16 16">
  <defs>
    <style>
      .cls-1 {
        fill: #6300ff;
      }
    </style>
  </defs>
  <!-- Generator: Adobe Illustrator 28.7.1, SVG Export Plug-In . SVG Version: 1.2.0 Build 142)  -->
  <g>
    <g id="Layer_1">
      <g id="Layer_1-2" data-name="Layer_1">
        <g id="Layer_1-2">
          <g id="Layer_1-2-2" data-name="Layer_1-2">
            <g id="Layer_1-2-2">
              <path class="cls-1" d="M13.4,0l-3.5,3.5c.7.4,1.2.9,1.6,1.6l.2-.2h0L16,.6v-.6h-2.6ZM3,1C1.4,1,0,2.4,0,4v6c0,1.6,1.4,3,3,3h10c1.6,0,3-1.4,3-3v-6c0-.6-.2-1.1-.4-1.6l-1.6,1.6v6c0,.6-.4,1-1,1H3c-.6,0-1-.4-1-1v-6c0-.6.4-1,1-1h6l2-2H3ZM8,4c-1.7,0-3,1.3-3,3v3h3c1.7,0,3-1.3,3-3s-1.3-3-3-3ZM5,14c-1.1,0-2,.9-2,2h10c0-1.1-.9-2-2-2h-6Z"/>
            </g>
          </g>
        </g>
      </g>
    </g>
  </g>
</svg>