<?xml version="1.0" encoding="UTF-8"?>
<svg xmlns="http://www.w3.org/2000/svg" version="1.1" viewBox="0 0 16 16">
  <defs>
    <style>
      .cls-1 {
        fill: #6300ff;
      }
    </style>
  </defs>
  <!-- Generator: Adobe Illustrator 28.7.1, SVG Export Plug-In . SVG Version: 1.2.0 Build 142)  -->
  <g>
    <g id="Layer_1">
      <g id="Layer_1-2" data-name="Layer_1">
        <g id="Layer_1-2">
          <g id="Layer_1-2-2" data-name="Layer_1-2">
            <g id="Layer_1-2-2">
              <g id="Layer_1-2-2-2" data-name="Layer_1-2-2">
                <g id="Layer_1-2-2-2">
                  <path class="cls-1" d="M7,1c-.3,0-.6.1-.8.4l-3.2,3.6h-1C.9,5,0,5.8,0,7v2C0,10.1.9,11,2,11h1l3.2,3.6c.2.3.5.4.8.4V1ZM13.5,2c-.2,0-.4,0-.6.2-.5.3-.6.9-.3,1.4,1.8,2.7,1.8,6.2,0,8.9-.3.5-.2,1.1.3,1.4.5.3,1.1.2,1.4-.3,1.1-1.7,1.7-3.6,1.7-5.6s-.6-3.9-1.7-5.6c-.2-.3-.5-.4-.8-.4ZM10,4c-.2,0-.5,0-.6.2-.3.2-.4.5-.4.8h0c0,.2,0,.4.2.6,1.1,1.4,1.1,3.4,0,4.8-.1.2-.2.3-.2.5h0c0,.4.1.7.4.9.4.3,1.1.2,1.4-.2.8-1.1,1.2-2.3,1.2-3.6s-.4-2.5-1.2-3.6c-.2-.2-.5-.4-.8-.4Z"/>
                </g>
              </g>
            </g>
          </g>
        </g>
      </g>
    </g>
  </g>
</svg>