<?xml version="1.0" encoding="UTF-8"?>
<svg xmlns="http://www.w3.org/2000/svg" version="1.1" viewBox="0 0 16 16">
  <defs>
    <style>
      .cls-1 {
        fill: #6300ff;
      }
    </style>
  </defs>
  <!-- Generator: Adobe Illustrator 28.7.1, SVG Export Plug-In . SVG Version: 1.2.0 Build 142)  -->
  <g>
    <g id="Layer_1">
      <g id="Layer_1-2" data-name="Layer_1">
        <g id="Layer_1-2">
          <g id="Layer_1-2-2" data-name="Layer_1-2">
            <g id="Layer_1-2-2">
              <path class="cls-1" d="M7.5,1c-.6,0-1,.4-1,1v.5c-.5,0-.9.3-1.4.6l-.3-.3c-.4-.4-1-.4-1.4,0l-.7.7c-.4.4-.4,1,0,1.4l.3.3c-.2.4-.4.9-.6,1.4h-.5c-.6,0-1,.4-1,1v1c0,.6.4,1,1,1h.4c0,.5.3.9.6,1.4l-.3.3c-.4.4-.4,1,0,1.4l.7.7c.4.4,1,.4,1.4,0l.3-.3c.4.2.9.4,1.4.6v.5c0,.6.4,1,1,1h1c.6,0,1-.4,1-1v-.5c.5-.1.9-.3,1.4-.6l.3.3c.4.4,1,.4,1.4,0l.7-.7c.4-.4.4-1,0-1.4l-.3-.3c.2-.4.4-.9.6-1.4h.5c.6,0,1-.4,1-1v-1c0-.6-.4-1-1-1h-.4c-.1-.5-.3-.9-.6-1.4l.3-.3c.4-.4.4-1,0-1.4l-.7-.7c-.4-.4-1-.4-1.4,0l-.3.3c-.4-.2-.9-.4-1.4-.6v-.5c0-.6-.4-1-1-1h-1ZM8,5c1.7,0,3,1.3,3,3s-1.3,3-3,3-3-1.3-3-3,1.3-3,3-3Z"/>
            </g>
          </g>
        </g>
      </g>
    </g>
  </g>
</svg>