<?xml version="1.0" encoding="UTF-8"?>
<svg xmlns="http://www.w3.org/2000/svg" version="1.1" viewBox="0 0 16 16">
  <defs>
    <style>
      .cls-1 {
        fill: #6300ff;
      }
    </style>
  </defs>
  <!-- Generator: Adobe Illustrator 28.7.1, SVG Export Plug-In . SVG Version: 1.2.0 Build 142)  -->
  <g>
    <g id="Layer_1">
      <g id="Layer_1-2" data-name="Layer_1">
        <g id="Layer_1-2">
          <g id="Layer_1-2-2" data-name="Layer_1-2">
            <g id="Layer_1-2-2">
              <path class="cls-1" d="M1,2c-.6,0-1,.4-1,1v10c0,.6.4,1,1,1h14c.6,0,1-.4,1-1V3c0-.6-.4-1-1-1H1ZM2.2,4h1.5s.2,0,.2.2v1.5s0,.2-.2.2h-1.5s-.2,0-.2-.2v-1.5s0-.2.2-.2ZM5.2,4h1.5s.2,0,.2.2v1.5s0,.2-.2.2h-1.5s-.2,0-.2-.2v-1.5s0-.2.2-.2ZM8.2,4h1.5c.1,0,.2,0,.2.2v1.5s-.1.2-.2.2h-1.5c-.1,0-.2,0-.2-.2v-1.5s.1-.2.2-.2ZM11.2,4h1.5c.1,0,.2,0,.2.2v1.5s-.1.2-.2.2h-1.5c-.1,0-.2,0-.2-.2v-1.5s.1-.2.2-.2ZM3.2,7h1.5s.2,0,.2.2v1.5c0,.1,0,.2-.2.2h-1.5s-.2-.1-.2-.2v-1.5s0-.2.2-.2ZM6.2,7h1.5s.2,0,.2.2v1.5c0,.1,0,.2-.2.2h-1.5s-.2-.1-.2-.2v-1.5s0-.2.2-.2ZM9.2,7h1.5c.1,0,.2,0,.2.2v1.5c0,.1-.1.2-.2.2h-1.5c-.1,0-.2-.1-.2-.2v-1.5s.1-.2.2-.2ZM12.2,7h1.5c.1,0,.2,0,.2.2v1.5c0,.1-.1.2-.2.2h-1.5c-.1,0-.2-.1-.2-.2v-1.5s.1-.2.2-.2ZM2.2,10h1.5s.2.1.2.2v1.5c0,.1,0,.2-.2.2h-1.5s-.2-.1-.2-.2v-1.5c0-.1,0-.2.2-.2ZM5.2,10h5.5c.1,0,.2.1.2.2v1.5c0,.1-.1.2-.2.2h-5.5s-.2-.1-.2-.2v-1.5c0-.1,0-.2.2-.2ZM12.2,10h2.5c.1,0,.2.1.2.2v1.5c0,.1-.1.2-.2.2h-2.5c-.1,0-.2-.1-.2-.2v-1.5c0-.1.1-.2.2-.2Z"/>
            </g>
          </g>
        </g>
      </g>
    </g>
  </g>
</svg>