<?xml version="1.0" encoding="UTF-8"?>
<svg xmlns="http://www.w3.org/2000/svg" version="1.1" viewBox="0 0 16 16">
  <defs>
    <style>
      .cls-1 {
        fill: #6300ff;
      }
    </style>
  </defs>
  <!-- Generator: Adobe Illustrator 28.7.1, SVG Export Plug-In . SVG Version: 1.2.0 Build 142)  -->
  <g>
    <g id="Layer_1">
      <g id="Layer_1-2" data-name="Layer_1">
        <g id="Layer_1-2">
          <g id="Layer_1-2-2" data-name="Layer_1-2">
            <g id="Layer_1-2-2">
              <path class="cls-1" d="M3,1C1.4,1,0,2.4,0,4v5c0,1.7,1.4,3,3,3s1-.4,1-1-.4-1-1-1-1-.4-1-1v-5c0-.6.4-1,1-1h8c.6,0,1,.4,1,1v2c0,.6.4,1,1,1s1-.4,1-1v-2c0-1.7-1.4-3-3-3H3ZM6.9,8c-1.1,0-1.9.9-1.9,1.9v3.1c0,1.1.9,1.9,1.9,1.9h4.1c1.1,0,1.9-.9,1.9-1.9v-.6l1.9,1.4c.2.2.5.2.7,0,.2-.1.4-.4.4-.6v-3.6c0-.3-.1-.5-.4-.6-.2-.1-.5,0-.7,0l-1.8,1.4v-.6c0-1.1-.9-1.9-1.9-1.9h-4.2,0Z"/>
            </g>
          </g>
        </g>
      </g>
    </g>
  </g>
</svg>