<?xml version="1.0" encoding="UTF-8"?>
<svg xmlns="http://www.w3.org/2000/svg" version="1.1" viewBox="0 0 16 16">
  <defs>
    <style>
      .cls-1 {
        fill: #6300ff;
      }
    </style>
  </defs>
  <!-- Generator: Adobe Illustrator 28.7.1, SVG Export Plug-In . SVG Version: 1.2.0 Build 142)  -->
  <g>
    <g id="Layer_1">
      <g id="Layer_1-2" data-name="Layer_1">
        <g id="Layer_1-2">
          <g id="Layer_1-2-2" data-name="Layer_1-2">
            <g id="Layer_1-2-2">
              <path class="cls-1" d="M2,2c-.1,0-.2,0-.3.2l-.2.2C.4,3.4,0,4.7,0,6s.5,2.6,1.4,3.6l.2.2c.2.2.5.2.7,0s.2-.5,0-.7l-.2-.2c-1.5-1.5-1.5-4.2,0-5.8l.2-.2c.2-.2.2-.5,0-.7h-.4.1v-.2ZM14,2h-.4c-.2.2-.2.5,0,.7l.2.2c1.5,1.5,1.5,4.2,0,5.8l-.2.2c-.2.2-.2.5,0,.7s.5.2.7,0l.2-.2c.9-1,1.4-2.3,1.4-3.6s-.5-2.6-1.4-3.6l-.2-.2s-.2,0-.3-.2h0s0,.2,0,.2ZM3.5,3.5h-.3l-.3.2c-.6.6-.9,1.3-.9,2.1s.3,1.6.9,2.1l.3.2c.2.2.5.2.7,0,.2-.2.2-.5,0-.7l-.3-.2c-.7-.6-.7-2.1,0-2.8l.3-.2c.2-.2.2-.5,0-.7,0,0-.2-.2-.4-.2h0s0,.2,0,.2ZM12.4,3.5c-.1,0-.2,0-.3.2-.2.2-.2.5,0,.7l.3.2c.7.7.7,2.1,0,2.8l-.3.2c-.2.2-.2.5,0,.7s.5.2.7,0l.3-.2c.6-.5.9-1.3.9-2.1s-.3-1.6-.9-2.1l-.3-.2h-.4s0-.2,0-.2ZM4.8,5c-.3,0-.6.2-.7.4v.8l2.8,3.5v6.2h2v-6.2l2.8-3.5c.2-.2.2-.5,0-.8-.1-.3-.4-.4-.7-.4h-6.5s.3,0,.3,0ZM6.3,6.5h3.4l-1.7,2.1s-1.7-2.1-1.7-2.1Z"/>
            </g>
          </g>
        </g>
      </g>
    </g>
  </g>
</svg>