<?xml version="1.0" encoding="UTF-8"?>
<svg xmlns="http://www.w3.org/2000/svg" version="1.1" viewBox="0 0 16 16">
  <defs>
    <style>
      .cls-1 {
        fill: #6300ff;
      }
    </style>
  </defs>
  <!-- Generator: Adobe Illustrator 28.7.1, SVG Export Plug-In . SVG Version: 1.2.0 Build 142)  -->
  <g>
    <g id="Layer_1">
      <g id="Layer_1-2" data-name="Layer_1">
        <g id="Layer_1-2">
          <g id="Layer_1-2-2" data-name="Layer_1-2">
            <g id="Layer_1-2-2">
              <g>
                <path class="cls-1" d="M3,1C1.3,1,0,2.3,0,4v7c0,1.7,1.3,3,3,3h10c1.7,0,3-1.3,3-3v-7c0-1.7-1.3-3-3-3H3ZM3,3h10c.6,0,1,.4,1,1v7c0,.6-.4,1-1,1H3c-.6,0-1-.4-1-1v-7c0-.6.4-1,1-1Z"/>
                <path class="cls-1" d="M8,16c3,0,4-1,4-1H4s1,1,4,1Z"/>
              </g>
            </g>
          </g>
        </g>
      </g>
    </g>
  </g>
</svg>